HIERARCHY
ROOT root
{
	OFFSET 0.000000 0.000000 0.000000
	CHANNELS 6 Xposition Yposition Zposition Zrotation Yrotation Xrotation
	JOINT lhip
	{
		OFFSET 0.058581 -0.082280 -0.017664
		CHANNELS 3 Zrotation Yrotation Xrotation
		JOINT lknee
		{
			OFFSET 0.043451 -0.386469 0.008037
			CHANNELS 3 Zrotation Yrotation Xrotation
			JOINT lankle
			{
				OFFSET -0.014790 -0.426874 -0.037428
				CHANNELS 3 Zrotation Yrotation Xrotation
				JOINT ltoe
				{
					OFFSET 0.041054 -0.060286 0.122042
					CHANNELS 3 Zrotation Yrotation Xrotation
					End Site
					{
						OFFSET 0.000000 0.000000 0.000000
					}
				}
			}
		}
	}
	JOINT rhip
	{
		OFFSET -0.060310 -0.090513 -0.013543
		CHANNELS 3 Zrotation Yrotation Xrotation
		JOINT rknee
		{
			OFFSET -0.043257 -0.383688 -0.004843
			CHANNELS 3 Zrotation Yrotation Xrotation
			JOINT rankle
			{
				OFFSET 0.019056 -0.420046 -0.034562
				CHANNELS 3 Zrotation Yrotation Xrotation
				JOINT rtoe
				{
					OFFSET -0.034840 -0.062106 0.130323
					CHANNELS 3 Zrotation Yrotation Xrotation
					End Site
					{
						OFFSET 0.000000 0.000000 0.000000
					}
				}
			}
		}
	}
	JOINT lowerback
	{
		OFFSET 0.004439 0.124404 -0.038385
		CHANNELS 3 Zrotation Yrotation Xrotation
		JOINT upperback
		{
			OFFSET 0.004488 0.137956 0.026820
			CHANNELS 3 Zrotation Yrotation Xrotation
			JOINT chest
			{
				OFFSET -0.002265 0.056032 0.002855
				CHANNELS 3 Zrotation Yrotation Xrotation
				JOINT lowerneck
				{
					OFFSET -0.013390 0.211636 -0.033468
					CHANNELS 3 Zrotation Yrotation Xrotation
					JOINT upperneck
					{
						OFFSET 0.010113 0.088937 0.050410
						CHANNELS 3 Zrotation Yrotation Xrotation
						End Site
						{
							OFFSET 0.000000 0.000000 0.000000
						}
					}
				}
				JOINT lclavicle
				{
					OFFSET 0.071702 0.114000 -0.018898
					CHANNELS 3 Zrotation Yrotation Xrotation
					JOINT lshoulder
					{
						OFFSET 0.122921 0.045205 -0.019046
						CHANNELS 3 Zrotation Yrotation Xrotation
						JOINT lelbow
						{
							OFFSET 0.255332 -0.015649 -0.022946
							CHANNELS 3 Zrotation Yrotation Xrotation
							JOINT lwrist
							{
								OFFSET 0.265709 0.012698 -0.007375
								CHANNELS 3 Zrotation Yrotation Xrotation
								End Site
								{
									OFFSET 0.000000 0.000000 0.000000
								}
							}
						}
					}
				}
				JOINT rclavicle
				{
					OFFSET -0.082954 0.112472 -0.023707
					CHANNELS 3 Zrotation Yrotation Xrotation
					JOINT rshoulder
					{
						OFFSET -0.113228 0.046853 -0.008472
						CHANNELS 3 Zrotation Yrotation Xrotation
						JOINT relbow
						{
							OFFSET -0.260127 -0.014369 -0.031269
							CHANNELS 3 Zrotation Yrotation Xrotation
							JOINT rwrist
							{
								OFFSET -0.269108 0.006794 -0.006027
								CHANNELS 3 Zrotation Yrotation Xrotation
								End Site
								{
									OFFSET 0.000000 0.000000 0.000000
								}
							}
						}
					}
				}
			}
		}
	}
}
MOTION
Frames: 11
Frame Time: 0.033333
-0.259959 -0.479997 0.971526 134.120552 -0.336242 85.045552 6.687010 -0.910687 -0.599226 -4.704998 -17.847436 12.892898 1.364013 6.377786 -17.293986 0.000000 -0.000000 0.000000 -12.894864 -0.396960 -12.492357 -2.286980 5.419570 31.250696 4.303767 -8.062375 -12.908222 0.000000 -0.000000 0.000000 1.290924 -0.793615 15.651509 1.949990 1.967686 -1.027342 -0.351018 -1.234309 5.626705 2.362574 14.025117 13.925261 -7.008824 8.677399 21.501728 -26.312651 14.238120 0.527180 -56.191735 -7.761062 6.638575 15.641169 -34.809389 0.863162 1.013504 -2.157392 -10.853662 30.311396 -7.669136 0.249653 50.498807 8.572321 12.798172 -16.528927 24.400257 -15.260104 0.982296 1.852048 -7.222049 
-0.272824 -0.469660 0.975072 133.159150 -0.265635 85.195353 5.618655 -0.782030 -0.085513 -4.143721 -17.960072 11.584512 1.558895 7.156184 -16.540023 0.000000 -0.000000 0.000000 -10.637900 -0.047943 -14.240456 -0.597261 4.772094 35.696914 4.156427 -7.339018 -16.020298 0.000000 -0.000000 0.000000 0.911250 -1.115260 15.924651 1.962369 2.066699 -1.152376 -0.520588 -1.164174 5.723281 2.524483 14.606683 13.688143 -7.163900 8.288637 21.639131 -25.924526 14.145861 0.387445 -55.325624 -7.311382 6.492587 16.099510 -35.624858 -0.294740 1.412918 -2.140857 -10.884892 30.448866 -7.481602 0.207889 51.326509 8.077727 13.308149 -16.650254 25.885147 -14.155978 1.389003 1.961899 -7.057373 
-0.283771 -0.460351 0.977949 132.549696 -0.436185 85.075515 4.459381 -0.800259 0.388139 -3.831977 -17.862705 10.936015 1.960400 7.885635 -16.183656 0.000000 -0.000000 0.000000 -8.319974 0.176233 -14.789777 1.250113 3.443830 38.787999 4.756479 -5.578305 -18.276294 0.000000 -0.000000 0.000000 0.253443 -1.295425 16.466253 1.964021 1.874677 -1.439725 -0.484679 -1.188373 5.874892 2.751529 15.293853 13.527588 -7.307127 8.064372 21.605733 -25.884907 14.006529 -0.074047 -54.512681 -6.846282 6.262846 16.601947 -35.831054 -1.309023 1.768641 -1.972545 -10.288154 30.682863 -7.514838 -0.212027 51.852670 7.554050 13.659821 -16.426826 27.180404 -12.938426 1.634410 2.241765 -6.958456 
-0.292529 -0.451542 0.979590 131.486784 -0.576316 84.961490 3.475666 -0.899699 0.922227 -3.646473 -17.532007 10.470144 2.326856 8.833378 -15.884922 0.000000 -0.000000 0.000000 -5.612266 0.539593 -14.822723 3.201159 1.707015 40.662960 5.700529 -4.046196 -19.734439 0.000000 -0.000000 0.000000 -0.191919 -1.315801 16.794499 1.858624 1.805148 -1.536511 -0.522171 -1.113051 5.918756 2.765859 15.814511 13.395080 -7.384955 7.760336 21.594741 -25.838404 13.936224 -0.489125 -54.118742 -6.325799 6.052582 17.147913 -35.632849 -2.555197 1.619623 -1.856015 -9.970572 30.674056 -7.385010 -0.456665 52.461678 6.987764 13.871753 -16.153900 28.084292 -12.100674 2.147687 2.453486 -7.356856 
-0.299030 -0.443437 0.980871 130.411730 -0.679845 85.174232 2.639838 -1.001053 1.004494 -3.414359 -16.771834 10.312870 2.526844 9.419236 -15.769376 0.000000 -0.000000 0.000000 -2.662792 0.516950 -14.361161 4.945760 -0.238828 40.536118 5.879057 -2.594988 -20.887346 0.000000 -0.000000 0.000000 -0.525584 -1.468342 17.153260 1.644607 1.534592 -2.326483 -0.565359 -0.860796 5.664775 2.725336 16.227697 13.816310 -7.257116 7.881629 21.635464 -25.852410 14.269989 -0.927057 -53.787266 -5.466137 5.744084 17.211210 -35.082275 -3.354633 1.339724 -1.859470 -9.820043 30.712511 -7.557146 -0.433519 53.080454 6.427513 13.852999 -15.743346 28.375761 -11.017054 2.518401 2.666553 -7.718007 
-0.304650 -0.435514 0.981225 129.604792 -0.948952 85.224549 1.578135 -1.299377 0.977149 -3.295229 -16.150719 10.661951 2.807139 10.086728 -15.775987 0.000000 -0.000000 0.000000 -0.284925 0.062007 -12.826881 6.499488 -2.259615 38.564397 6.932659 -1.026229 -20.360487 0.000000 -0.000000 0.000000 -0.594629 -1.224197 17.182119 1.321560 1.287292 -2.583747 -0.622423 -0.857568 5.601399 2.605214 16.239987 13.928970 -7.045647 7.888016 21.459195 -25.696596 14.207389 -1.152550 -54.082900 -5.012467 5.666723 17.237283 -34.535391 -3.763409 1.031066 -1.655191 -9.409147 30.218262 -7.770408 -0.490542 54.090579 5.922972 13.707830 -15.410721 28.353149 -10.029749 2.834830 2.708961 -8.069673 
-0.308547 -0.427039 0.980045 128.326719 -1.616690 85.368725 0.273115 -1.542425 1.193368 -3.236609 -14.977649 10.641510 3.376242 10.409334 -15.779079 0.000000 -0.000000 0.000000 1.729214 -0.563007 -10.570000 5.819851 -3.263160 34.942331 5.169730 -2.369223 -17.819170 0.000000 -0.000000 0.000000 -0.633750 -0.783096 16.628915 0.786944 1.241605 -2.587163 -0.774421 -0.827741 5.736058 1.898744 15.941852 14.075939 -6.740256 8.501347 20.958458 -25.704631 14.209030 -0.992654 -54.413386 -4.807170 5.338925 17.291092 -34.100049 -3.474033 0.277919 -1.653021 -9.183899 29.594215 -7.967319 -0.208153 55.308468 5.436610 13.642901 -15.930926 28.303602 -9.796696 3.153457 2.616566 -8.605491 
-0.312951 -0.418205 0.978557 126.927705 -2.364795 85.694206 -1.157189 -1.529107 0.943438 -3.211880 -13.413678 11.013405 3.343627 10.148075 -16.146058 0.000000 -0.000000 0.000000 2.741497 -1.565033 -8.208620 1.916477 -4.225835 28.980249 1.631239 -6.974942 -18.638141 0.000000 -0.000000 0.000000 -0.097979 -0.392907 15.991323 -0.004171 1.340670 -2.912490 -1.123111 -0.812031 6.174233 0.995328 15.638730 13.890608 -6.684047 9.437658 20.967040 -26.117323 14.505348 -0.941625 -54.574407 -5.115601 4.955894 16.928716 -33.561834 -2.471784 -0.547063 -1.786746 -9.103323 29.056341 -8.083307 -0.075164 56.123628 4.992919 13.845236 -16.456721 27.995676 -10.037701 3.393403 2.550952 -8.911838 
-0.317745 -0.410002 0.977849 125.377760 -2.661218 86.239635 -2.127359 -1.706041 0.063012 -3.349803 -11.972745 12.182706 3.451510 10.561612 -16.749519 0.000000 -0.000000 0.000000 2.778581 -1.658842 -6.687010 1.184290 -2.253435 25.119534 0.584501 -7.361607 -19.646683 0.000000 -0.000000 0.000000 0.964171 -0.209053 15.353685 -0.388078 1.388454 -3.237033 -1.650999 -0.501421 6.365951 0.098131 15.656153 13.717638 -7.026455 9.881883 21.036374 -26.785147 14.887683 -1.638590 -54.981177 -4.954787 5.054043 16.716236 -32.736178 -1.975173 -1.046398 -1.999108 -8.707984 28.497507 -8.307142 0.107646 56.152393 4.917115 13.981379 -16.394223 27.500439 -9.829792 3.174167 2.552125 -8.862279 
-0.321387 -0.401507 0.977823 123.803267 -2.425865 86.376836 -2.431469 -1.580074 -0.316224 -3.633001 -10.844900 13.252505 3.622742 11.005161 -17.237453 0.000000 -0.000000 0.000000 2.377687 -1.472282 -5.189971 1.443081 -0.216535 22.592675 0.261735 -6.251636 -19.792793 0.000000 -0.000000 0.000000 2.217584 -0.139581 14.996179 -0.373247 1.594401 -3.081411 -1.843685 -0.074062 6.281558 -0.679489 15.732427 13.697669 -7.462954 10.452847 20.825152 -27.830569 15.063805 -2.037327 -55.646609 -4.624189 5.117823 16.739727 -32.614920 -1.702966 -1.497321 -2.100990 -8.481872 27.877178 -8.306254 0.454893 55.434862 4.884124 13.725404 -16.106273 27.048641 -9.840646 3.347422 2.538109 -9.055251 
-0.324572 -0.394485 0.979702 122.498717 -1.819750 86.342857 -2.021476 -1.153222 -0.269300 -3.925913 -10.208525 13.747177 3.264009 10.476097 -17.308280 0.000000 -0.000000 0.000000 2.280094 -1.558830 -5.167370 1.857748 -0.178955 22.376007 0.563800 -5.820474 -19.098386 0.000000 -0.000000 0.000000 2.876192 -0.288753 14.984250 0.054382 1.873653 -2.974031 -1.482760 0.185955 6.128986 -0.918032 15.461060 13.630586 -7.887649 10.788374 20.912433 -28.552177 15.252753 -2.325851 -57.014176 -4.541123 5.437701 16.707772 -31.983651 -1.383256 -1.518472 -2.446437 -8.675277 27.698292 -7.927715 0.668684 53.957113 5.326622 13.449417 -15.574002 25.628958 -10.303765 2.979998 2.713448 -8.921172 
